<svg width="800" height="800" viewBox="0 0 800 800" fill="none" xmlns="http://www.w3.org/2000/svg">
  <rect width="800" height="800" fill="#163300"/>
  
  <!-- Grid Pattern Background -->
  <defs>
    <pattern id="grid" width="80" height="80" patternUnits="userSpaceOnUse">
      <circle cx="40" cy="40" r="2" fill="#9BE36D" opacity="0.3"/>
    </pattern>
    <pattern id="dots" width="40" height="40" patternUnits="userSpaceOnUse">
      <circle cx="20" cy="20" r="3" fill="#FFC091" opacity="0.2"/>
    </pattern>
  </defs>
  
  <rect width="800" height="800" fill="url(#grid)"/>
  
  <!-- Pattern Showcase Cards -->
  <rect x="150" y="200" width="200" height="150" rx="8" fill="#9BE36D" opacity="0.2"/>
  <rect x="160" y="210" width="180" height="130" rx="6" fill="url(#dots)"/>
  
  <rect x="450" y="200" width="200" height="150" rx="8" fill="#9BE36D" opacity="0.2"/>
  <g transform="translate(460, 210)">
    <line x1="0" y1="20" x2="180" y2="20" stroke="#FFC091" stroke-width="2" opacity="0.4"/>
    <line x1="0" y1="40" x2="180" y2="40" stroke="#FFC091" stroke-width="2" opacity="0.4"/>
    <line x1="0" y1="60" x2="180" y2="60" stroke="#FFC091" stroke-width="2" opacity="0.4"/>
    <line x1="0" y1="80" x2="180" y2="80" stroke="#FFC091" stroke-width="2" opacity="0.4"/>
    <line x1="0" y1="100" x2="180" y2="100" stroke="#FFC091" stroke-width="2" opacity="0.4"/>
  </g>
  
  <rect x="150" y="450" width="200" height="150" rx="8" fill="#9BE36D" opacity="0.2"/>
  <g transform="translate(160, 460)">
    <rect x="0" y="0" width="40" height="40" fill="#FFC091" opacity="0.3"/>
    <rect x="50" y="0" width="40" height="40" fill="#FFC091" opacity="0.4"/>
    <rect x="100" y="0" width="40" height="40" fill="#FFC091" opacity="0.3"/>
    <rect x="150" y="0" width="30" height="40" fill="#FFC091" opacity="0.4"/>
    <rect x="0" y="50" width="40" height="40" fill="#FFC091" opacity="0.4"/>
    <rect x="50" y="50" width="40" height="40" fill="#FFC091" opacity="0.3"/>
    <rect x="100" y="50" width="40" height="40" fill="#FFC091" opacity="0.4"/>
    <rect x="150" y="50" width="30" height="40" fill="#FFC091" opacity="0.3"/>
    <rect x="0" y="100" width="40" height="30" fill="#FFC091" opacity="0.3"/>
    <rect x="50" y="100" width="40" height="30" fill="#FFC091" opacity="0.4"/>
    <rect x="100" y="100" width="40" height="30" fill="#FFC091" opacity="0.3"/>
    <rect x="150" y="100" width="30" height="30" fill="#FFC091" opacity="0.4"/>
  </g>
  
  <rect x="450" y="450" width="200" height="150" rx="8" fill="#9BE36D" opacity="0.2"/>
  <g transform="translate(460, 460)">
    <circle cx="30" cy="30" r="25" fill="none" stroke="#FFC091" stroke-width="2" opacity="0.4"/>
    <circle cx="90" cy="30" r="25" fill="none" stroke="#FFC091" stroke-width="2" opacity="0.4"/>
    <circle cx="150" cy="30" r="25" fill="none" stroke="#FFC091" stroke-width="2" opacity="0.4"/>
    <circle cx="30" cy="90" r="25" fill="none" stroke="#FFC091" stroke-width="2" opacity="0.4"/>
    <circle cx="90" cy="90" r="25" fill="none" stroke="#FFC091" stroke-width="2" opacity="0.4"/>
    <circle cx="150" cy="90" r="25" fill="none" stroke="#FFC091" stroke-width="2" opacity="0.4"/>
  </g>
  
  <!-- Decorative elements -->
  <circle cx="100" cy="100" r="50" fill="#9BE36D" opacity="0.05"/>
  <circle cx="700" cy="700" r="70" fill="#9BE36D" opacity="0.05"/>
</svg>
